<svg width="522" height="464" viewBox="0 0 522 464" fill="none" xmlns="http://www.w3.org/2000/svg">
<path fill-rule="evenodd" clip-rule="evenodd" d="M272.594 0.0612662C309.302 1.53691 330.84 43.1641 365.093 56.4417C407.92 73.0429 465.023 54.1338 497.039 87.0633C528.179 119.092 521.771 171.958 520.82 216.613C519.883 260.598 511.045 303.554 491.59 343.017C471.271 384.233 447.326 427.374 406.506 448.494C366.107 469.396 317.006 466.158 272.594 456.323C232.901 447.532 206.447 411.852 169.05 395.909C124.904 377.088 65.7103 390.258 33.7263 354.486C2.05164 319.061 -9.64347 260.431 8.73903 216.613C27.7599 171.273 92.1727 167.349 126.857 132.494C150.031 109.205 151.382 70.9236 175.698 48.8281C202.92 24.0909 235.836 -1.41637 272.594 0.0612662Z" fill="#F2C94C"/>
</svg>
