<svg width="386" height="409" viewBox="0 0 386 409" fill="none" xmlns="http://www.w3.org/2000/svg">
<path fill-rule="evenodd" clip-rule="evenodd" d="M171.304 63.9401C200.902 73.6783 230.665 74.4148 260.137 84.528C304.004 99.5808 376.094 91.8309 385.177 137.33C394.748 185.271 318.218 204.706 292.417 246.224C275.824 272.925 285.39 311.162 263.272 333.496C239.606 357.393 203.605 359.173 171.304 368.519C123.854 382.247 72.1895 427.23 30.4103 400.868C-10.5761 375.007 1.47482 310.297 2.20581 261.823C2.74452 226.1 30.5819 197.785 34.0091 162.223C39.0789 109.615 -16.2683 38.476 26.6936 7.72152C69.806 -23.1407 120.945 47.3713 171.304 63.9401Z" fill="#183953"/>
</svg>
