<svg width="50" height="50" viewBox="0 0 50 50" fill="none" xmlns="http://www.w3.org/2000/svg">
<path fill-rule="evenodd" clip-rule="evenodd" d="M15.625 28.125H6.25C4.52344 28.125 3.125 29.5234 3.125 31.25V43.75C3.125 45.4766 4.52344 46.875 6.25 46.875H15.625C17.3516 46.875 18.75 45.4766 18.75 43.75V31.25C18.75 29.5234 17.3516 28.125 15.625 28.125ZM26.5625 15.625C25.3188 15.625 24.1266 16.1188 23.2484 16.9984C22.3687 17.8766 21.875 19.0688 21.875 20.3125C21.875 25.7234 21.875 36.7766 21.875 42.1875C21.875 43.4313 22.3687 44.6234 23.2484 45.5016C24.1266 46.3813 25.3188 46.875 26.5625 46.875H34.6437C35.8859 46.875 37.0781 46.3813 37.9578 45.5016L45.5016 37.9578C46.3813 37.0781 46.875 35.8859 46.875 34.6437V20.3125C46.875 17.7234 44.7766 15.625 42.1875 15.625H26.5625ZM6.25 31.25V43.75H15.625V31.25H6.25ZM43.75 34.375V20.3125C43.75 19.45 43.05 18.75 42.1875 18.75H26.5625C26.1484 18.75 25.75 18.9141 25.4578 19.2078C25.1641 19.5 25 19.8984 25 20.3125V42.1875C25 42.6016 25.1641 43 25.4578 43.2922C25.75 43.5859 26.1484 43.75 26.5625 43.75H34.375V39.0625C34.375 36.4734 36.4734 34.375 39.0625 34.375H43.75ZM41.5406 37.5H39.0625C38.2 37.5 37.5 38.2 37.5 39.0625V41.5406L41.5406 37.5ZM9.375 35.9375V39.0625C9.375 39.925 10.075 40.625 10.9375 40.625C11.8 40.625 12.5 39.925 12.5 39.0625V35.9375C12.5 35.075 11.8 34.375 10.9375 34.375C10.075 34.375 9.375 35.075 9.375 35.9375ZM29.6875 31.25H35.9375C36.8 31.25 37.5 30.55 37.5 29.6875C37.5 28.825 36.8 28.125 35.9375 28.125H29.6875C28.825 28.125 28.125 28.825 28.125 29.6875C28.125 30.55 28.825 31.25 29.6875 31.25ZM29.6875 25H39.0625C39.925 25 40.625 24.3 40.625 23.4375C40.625 22.575 39.925 21.875 39.0625 21.875H29.6875C28.825 21.875 28.125 22.575 28.125 23.4375C28.125 24.3 28.825 25 29.6875 25ZM15.625 3.125H6.25C5.42188 3.125 4.62656 3.45469 4.04062 4.04062C3.45469 4.62656 3.125 5.42188 3.125 6.25C3.125 9.78125 3.125 18.3438 3.125 21.875C3.125 22.7031 3.45469 23.4984 4.04062 24.0844C4.62656 24.6703 5.42188 25 6.25 25H15.625C16.4531 25 17.2484 24.6703 17.8344 24.0844C18.4203 23.4984 18.75 22.7031 18.75 21.875C18.75 18.3438 18.75 9.78125 18.75 6.25C18.75 5.42188 18.4203 4.62656 17.8344 4.04062C17.2484 3.45469 16.4531 3.125 15.625 3.125ZM14.3687 6.25H6.25V21.875H14.3687L10.1313 17.2172C8.50469 15.4281 8.50469 12.6969 10.1313 10.9078L14.3687 6.25ZM15.625 9.51406L12.4438 13.0109C11.9016 13.6078 11.9016 14.5172 12.4438 15.1141L15.625 18.6109V9.51406ZM43.75 3.125H28.4609C28.0172 3.125 27.5797 3.21875 27.175 3.40156L23.7156 4.96406C22.5953 5.47031 21.8766 6.58437 21.8766 7.8125C21.8766 9.04063 22.5953 10.1547 23.7156 10.6609L27.175 12.2234C27.5797 12.4063 28.0172 12.5 28.4609 12.5H43.75C45.4766 12.5 46.875 11.1016 46.875 9.375V6.25C46.875 4.52344 45.4766 3.125 43.75 3.125ZM25.0016 7.8125L28.4609 9.375H43.75V6.25H28.4609L25.0016 7.8125Z" fill="#183953"/>
</svg>
