<svg width="66" height="132" viewBox="0 0 66 132" fill="none" xmlns="http://www.w3.org/2000/svg">
<circle cx="63" cy="129" r="3" transform="rotate(-180 63 129)" fill="#7F8F9C"/>
<circle cx="63" cy="111" r="3" transform="rotate(-180 63 111)" fill="#7F8F9C"/>
<circle cx="63" cy="93" r="3" transform="rotate(-180 63 93)" fill="#7F8F9C"/>
<circle cx="63" cy="75" r="3" transform="rotate(-180 63 75)" fill="#7F8F9C"/>
<circle cx="63" cy="57" r="3" transform="rotate(-180 63 57)" fill="#7F8F9C"/>
<circle cx="63" cy="39" r="3" transform="rotate(-180 63 39)" fill="#7F8F9C"/>
<circle cx="63" cy="21" r="3" transform="rotate(-180 63 21)" fill="#7F8F9C"/>
<circle cx="63" cy="3" r="3" transform="rotate(-180 63 3)" fill="#7F8F9C"/>
<circle cx="45" cy="129" r="3" transform="rotate(-180 45 129)" fill="#7F8F9C"/>
<circle cx="45" cy="111" r="3" transform="rotate(-180 45 111)" fill="#7F8F9C"/>
<circle cx="45" cy="93" r="3" transform="rotate(-180 45 93)" fill="#7F8F9C"/>
<circle cx="45" cy="75" r="3" transform="rotate(-180 45 75)" fill="#7F8F9C"/>
<circle cx="45" cy="57" r="3" transform="rotate(-180 45 57)" fill="#7F8F9C"/>
<circle cx="45" cy="39" r="3" transform="rotate(-180 45 39)" fill="#7F8F9C"/>
<circle cx="45" cy="21" r="3" transform="rotate(-180 45 21)" fill="#7F8F9C"/>
<circle cx="45" cy="3" r="3" transform="rotate(-180 45 3)" fill="#7F8F9C"/>
<circle cx="27" cy="129" r="3" transform="rotate(-180 27 129)" fill="#7F8F9C"/>
<circle cx="27" cy="111" r="3" transform="rotate(-180 27 111)" fill="#7F8F9C"/>
<circle cx="27" cy="93" r="3" transform="rotate(-180 27 93)" fill="#7F8F9C"/>
<circle cx="27" cy="75" r="3" transform="rotate(-180 27 75)" fill="#7F8F9C"/>
<circle cx="27" cy="57" r="3" transform="rotate(-180 27 57)" fill="#7F8F9C"/>
<circle cx="27" cy="39" r="3" transform="rotate(-180 27 39)" fill="#7F8F9C"/>
<circle cx="27" cy="21" r="3" transform="rotate(-180 27 21)" fill="#7F8F9C"/>
<circle cx="27" cy="3" r="3" transform="rotate(-180 27 3)" fill="#7F8F9C"/>
<circle cx="9" cy="129" r="3" transform="rotate(-180 9 129)" fill="#7F8F9C"/>
<circle cx="9" cy="111" r="3" transform="rotate(-180 9 111)" fill="#7F8F9C"/>
<circle cx="9" cy="93" r="3" transform="rotate(-180 9 93)" fill="#7F8F9C"/>
<circle cx="9" cy="75" r="3" transform="rotate(-180 9 75)" fill="#7F8F9C"/>
<circle cx="9" cy="57" r="3" transform="rotate(-180 9 57)" fill="#7F8F9C"/>
<circle cx="9" cy="39" r="3" transform="rotate(-180 9 39)" fill="#7F8F9C"/>
<circle cx="9" cy="21" r="3" transform="rotate(-180 9 21)" fill="#7F8F9C"/>
<circle cx="9" cy="3" r="3" transform="rotate(-180 9 3)" fill="#7F8F9C"/>
</svg>
