<svg width="44" height="44" viewBox="0 0 44 44" fill="none" xmlns="http://www.w3.org/2000/svg">
<path fill-rule="evenodd" clip-rule="evenodd" d="M16.3438 15.3318H24.5146V19.4018C25.6916 17.061 28.71 14.9578 33.2442 14.9578C41.9364 14.9578 44 19.6174 44 28.1666V44H35.2V30.1136C35.2 25.245 34.023 22.4994 31.0266 22.4994C26.8708 22.4994 25.1438 25.4584 25.1438 30.1114V44H16.3438V15.3318ZM1.254 43.626H10.054V14.9578H1.254V43.626ZM11.3146 5.61C11.3149 6.34761 11.1686 7.07792 10.8843 7.75849C10.5999 8.43907 10.183 9.05633 9.658 9.5744C8.59408 10.6318 7.15398 11.2236 5.654 11.22C4.15666 11.219 2.71988 10.6286 1.6544 9.5766C1.13127 9.05677 0.715849 8.43881 0.431956 7.75815C0.148063 7.07749 0.00127409 6.34749 0 5.61C0 4.1206 0.594 2.695 1.6566 1.6434C2.72115 0.589949 4.15853 -0.000658264 5.6562 5.50582e-07C7.1566 5.50582e-07 8.5954 0.591801 9.658 1.6434C10.7184 2.695 11.3146 4.1206 11.3146 5.61Z" fill="#F4F3F8"/>
</svg>
