<svg width="148" height="148" viewBox="0 0 148 148" fill="none" xmlns="http://www.w3.org/2000/svg">
<g filter="url(#filter0_d_1418_4936)">
<rect x="50" y="26" width="48" height="48" rx="18" fill="#F2C94C"/>
<path d="M64.0003 49H70.0003C70.2656 49 70.5199 48.8946 70.7074 48.7071C70.895 48.5196 71.0003 48.2652 71.0003 48V42C71.0003 41.7348 70.895 41.4804 70.7074 41.2929C70.5199 41.1054 70.2656 41 70.0003 41H64.0003C63.7351 41 63.4808 41.1054 63.2932 41.2929C63.1057 41.4804 63.0003 41.7348 63.0003 42V48C63.0003 48.2652 63.1057 48.5196 63.2932 48.7071C63.4808 48.8946 63.7351 49 64.0003 49ZM65.0003 43H69.0003V47H65.0003V43ZM84.0003 44H74.0003C73.7351 44 73.4808 44.1054 73.2932 44.2929C73.1057 44.4804 73.0003 44.7348 73.0003 45C73.0003 45.2652 73.1057 45.5196 73.2932 45.7071C73.4808 45.8946 73.7351 46 74.0003 46H84.0003C84.2656 46 84.5199 45.8946 84.7075 45.7071C84.895 45.5196 85.0003 45.2652 85.0003 45C85.0003 44.7348 84.895 44.4804 84.7075 44.2929C84.5199 44.1054 84.2656 44 84.0003 44ZM84.0003 54H74.0003C73.7351 54 73.4808 54.1054 73.2932 54.2929C73.1057 54.4804 73.0003 54.7348 73.0003 55C73.0003 55.2652 73.1057 55.5196 73.2932 55.7071C73.4808 55.8946 73.7351 56 74.0003 56H84.0003C84.2656 56 84.5199 55.8946 84.7075 55.7071C84.895 55.5196 85.0003 55.2652 85.0003 55C85.0003 54.7348 84.895 54.4804 84.7075 54.2929C84.5199 54.1054 84.2656 54 84.0003 54ZM65.9423 58H65.9543C66.2165 57.9992 66.4679 57.8954 66.6543 57.711L70.7003 53.711C70.8042 53.6217 70.8885 53.5119 70.9482 53.3887C71.0078 53.2654 71.0415 53.1312 71.0472 52.9943C71.0528 52.8575 71.0303 52.7209 70.981 52.5931C70.9317 52.4654 70.8567 52.3491 70.7606 52.2515C70.6645 52.1539 70.5494 52.0771 70.4224 52.0258C70.2954 51.9745 70.1593 51.9499 70.0223 51.9534C69.8854 51.9569 69.7507 51.9885 69.6265 52.0462C69.5023 52.104 69.3913 52.1866 69.3003 52.289L65.9713 55.578L64.7193 54.278C64.628 54.1836 64.519 54.1081 64.3985 54.0558C64.2779 54.0035 64.1483 53.9755 64.017 53.9733C63.7517 53.9689 63.4955 54.07 63.3048 54.2545C63.1142 54.439 63.0045 54.6916 63.0001 54.9569C62.9957 55.2222 63.0969 55.4783 63.2813 55.669L65.2353 57.7C65.3276 57.7941 65.4376 57.8691 65.5589 57.9206C65.6802 57.9721 65.8105 57.9991 65.9423 58Z" fill="#F4F3F8"/>
</g>
<defs>
<filter id="filter0_d_1418_4936" x="0" y="0" width="148" height="148" filterUnits="userSpaceOnUse" color-interpolation-filters="sRGB">
<feFlood flood-opacity="0" result="BackgroundImageFix"/>
<feColorMatrix in="SourceAlpha" type="matrix" values="0 0 0 0 0 0 0 0 0 0 0 0 0 0 0 0 0 0 127 0" result="hardAlpha"/>
<feOffset dy="24"/>
<feGaussianBlur stdDeviation="25"/>
<feComposite in2="hardAlpha" operator="out"/>
<feColorMatrix type="matrix" values="0 0 0 0 0.0509804 0 0 0 0 0.0470588 0 0 0 0 0.219608 0 0 0 0.15 0"/>
<feBlend mode="normal" in2="BackgroundImageFix" result="effect1_dropShadow_1418_4936"/>
<feBlend mode="normal" in="SourceGraphic" in2="effect1_dropShadow_1418_4936" result="shape"/>
</filter>
</defs>
</svg>
