<svg width="51" height="50" viewBox="0 0 51 50" fill="none" xmlns="http://www.w3.org/2000/svg">
<path fill-rule="evenodd" clip-rule="evenodd" d="M17.832 6.25H13.1445C11.9008 6.25 10.7086 6.74375 9.83047 7.62344C8.95078 8.50156 8.45703 9.69375 8.45703 10.9375C8.45703 18 8.45703 35.125 8.45703 42.1875C8.45703 43.4313 8.95078 44.6234 9.83047 45.5016C10.7086 46.3813 11.9008 46.875 13.1445 46.875C19.132 46.875 32.157 46.875 38.1445 46.875C39.3883 46.875 40.5805 46.3813 41.4586 45.5016C42.3383 44.6234 42.832 43.4313 42.832 42.1875C42.832 35.125 42.832 18 42.832 10.9375C42.832 9.69375 42.3383 8.50156 41.4586 7.62344C40.5805 6.74375 39.3883 6.25 38.1445 6.25H33.457C33.457 5.42188 33.1273 4.62656 32.5414 4.04062C31.9555 3.45469 31.1602 3.125 30.332 3.125H20.957C20.1289 3.125 19.3336 3.45469 18.7477 4.04062C18.1617 4.62656 17.832 5.42188 17.832 6.25ZM33.457 9.375V19.3125C33.457 20.3969 32.8961 21.4016 31.9742 21.9719C31.0539 22.5406 29.9039 22.5922 28.9352 22.1078L25.6445 20.4641L22.3539 22.1078C21.3852 22.5922 20.2352 22.5406 19.3148 21.9719C18.393 21.4016 17.832 20.3969 17.832 19.3125V9.375H13.1445C12.7305 9.375 12.332 9.53906 12.0398 9.83281C11.7461 10.125 11.582 10.5234 11.582 10.9375V42.1875C11.582 42.6016 11.7461 43 12.0398 43.2922C12.332 43.5859 12.7305 43.75 13.1445 43.75H38.1445C38.5586 43.75 38.957 43.5859 39.2492 43.2922C39.543 43 39.707 42.6016 39.707 42.1875V10.9375C39.707 10.5234 39.543 10.125 39.2492 9.83281C38.957 9.53906 38.5586 9.375 38.1445 9.375H33.457ZM19.3945 39.0625H28.7695C29.632 39.0625 30.332 38.3625 30.332 37.5C30.332 36.6375 29.632 35.9375 28.7695 35.9375H19.3945C18.532 35.9375 17.832 36.6375 17.832 37.5C17.832 38.3625 18.532 39.0625 19.3945 39.0625ZM19.3945 32.8125H31.8945C32.757 32.8125 33.457 32.1125 33.457 31.25C33.457 30.3875 32.757 29.6875 31.8945 29.6875H19.3945C18.532 29.6875 17.832 30.3875 17.832 31.25C17.832 32.1125 18.532 32.8125 19.3945 32.8125ZM30.332 6.25V19.3125L26.343 17.3187C25.9039 17.0984 25.3852 17.0984 24.9461 17.3187L20.957 19.3125V6.25H30.332Z" fill="#183953"/>
</svg>
