<svg width="44" height="44" viewBox="0 0 44 44" fill="none" xmlns="http://www.w3.org/2000/svg">
<path fill-rule="evenodd" clip-rule="evenodd" d="M16.132 0C14.965 0.000265216 13.846 0.46409 13.021 1.28944C12.1961 2.11478 11.7327 3.23405 11.733 4.401C11.7333 5.56795 12.1971 6.687 13.0224 7.51198C13.8478 8.33695 14.967 8.80027 16.134 8.8H20.534V4.4C20.5329 3.23337 20.069 2.11483 19.2441 1.2899C18.4192 0.464969 17.3006 0.00105913 16.134 0H16.132ZM16.132 11.734H4.4C3.23305 11.734 2.11389 12.1976 1.28873 13.0227C0.46357 13.8479 0 14.967 0 16.134C0 17.301 0.46357 18.4201 1.28873 19.2453C2.11389 20.0704 3.23305 20.534 4.4 20.534H16.132C17.299 20.534 18.4181 20.0704 19.2433 19.2453C20.0684 18.4201 20.532 17.301 20.532 16.134C20.532 14.967 20.0684 13.8479 19.2433 13.0227C18.4181 12.1976 17.299 11.734 16.132 11.734ZM44 16.132C44 14.965 43.5364 13.8459 42.7113 13.0207C41.8861 12.1956 40.767 11.732 39.6 11.732C38.433 11.732 37.3139 12.1956 36.4887 13.0207C35.6636 13.8459 35.2 14.965 35.2 16.132V20.532H39.6C40.767 20.532 41.8861 20.0684 42.7113 19.2433C43.5364 18.4181 44 17.299 44 16.132ZM32.266 16.132V4.4C32.266 3.23305 31.8024 2.11389 30.9773 1.28873C30.1521 0.46357 29.033 0 27.866 0C26.699 0 25.5799 0.46357 24.7547 1.28873C23.9296 2.11389 23.466 3.23305 23.466 4.4V16.132C23.466 17.299 23.9296 18.4181 24.7547 19.2433C25.5799 20.0684 26.699 20.532 27.866 20.532C29.033 20.532 30.1521 20.0684 30.9773 19.2433C31.8024 18.4181 32.266 17.299 32.266 16.132ZM27.866 44C29.033 44 30.1521 43.5364 30.9773 42.7113C31.8024 41.8861 32.266 40.767 32.266 39.6C32.266 38.433 31.8024 37.3139 30.9773 36.4887C30.1521 35.6636 29.033 35.2 27.866 35.2H23.466V39.6C23.4665 40.7668 23.9303 41.8856 24.7553 42.7107C25.5804 43.5357 26.6992 43.9995 27.866 44ZM27.866 32.264H39.6C40.767 32.264 41.8861 31.8004 42.7113 30.9753C43.5364 30.1501 44 29.031 44 27.864C44 26.697 43.5364 25.5779 42.7113 24.7527C41.8861 23.9276 40.767 23.464 39.6 23.464H27.868C26.701 23.4637 25.5818 23.9271 24.7564 24.752C23.9311 25.577 23.4673 26.696 23.467 27.863C23.4667 29.03 23.9301 30.1492 24.755 30.9746C25.58 31.7999 26.699 32.2637 27.866 32.264ZM0 27.866C0 29.033 0.46357 30.1521 1.28873 30.9773C2.11389 31.8024 3.23305 32.266 4.4 32.266C5.56695 32.266 6.68611 31.8024 7.51127 30.9773C8.33643 30.1521 8.8 29.033 8.8 27.866V23.466H4.4C3.23305 23.466 2.11389 23.9296 1.28873 24.7547C0.46357 25.5799 0 26.699 0 27.866ZM11.734 27.866V39.598C11.7337 40.765 12.1971 41.8842 13.022 42.7096C13.847 43.5349 14.966 43.9987 16.133 43.999C17.3 43.9993 18.4192 43.5359 19.2446 42.711C20.0699 41.886 20.5337 40.767 20.534 39.6V27.868C20.5343 26.701 20.0709 25.5818 19.246 24.7564C18.421 23.9311 17.302 23.4673 16.135 23.467C14.968 23.4667 13.8488 23.9301 13.0234 24.755C12.1981 25.58 11.7343 26.699 11.734 27.866Z" fill="#F4F3F8"/>
</svg>
