<svg width="51" height="50" viewBox="0 0 51 50" fill="none" xmlns="http://www.w3.org/2000/svg">
<path d="M46.0926 13.8742L44.2613 12.043C42.4973 10.2773 39.3973 10.2773 37.6332 12.043L30.4676 19.2086L21.0926 28.5836C20.7988 28.8758 20.6348 29.2742 20.6348 29.6883V35.9383C20.6348 36.8008 21.3348 37.5008 22.1973 37.5008H28.4473C28.8629 37.5008 29.2598 37.3367 29.552 37.043L38.927 27.668L46.0926 20.5023C47.9191 18.6758 47.9191 15.7008 46.0926 13.8742ZM23.7598 34.3758V30.3352L27.8004 34.3758H23.7598ZM36.7176 25.4586L30.0098 32.1664L25.9691 28.1258L32.677 21.418L36.2598 17.8352L40.3004 21.8758L36.7176 25.4586ZM43.8832 18.293L42.5098 19.6664L38.4691 15.6258L39.8426 14.2523C40.4285 13.6664 41.466 13.6664 42.052 14.2523L43.8832 16.0836C44.4926 16.693 44.4926 17.6836 43.8832 18.293Z" fill="#183953"/>
<path d="M39.3848 31.25C38.5207 31.25 37.8223 31.95 37.8223 32.8125V43.75C37.8223 44.6109 37.1223 45.3125 36.2598 45.3125H14.3848C13.5238 45.3125 12.8223 44.6109 12.8223 43.75V6.25C12.8223 5.38906 13.5238 4.6875 14.3848 4.6875H36.2598C37.1223 4.6875 37.8223 5.38906 37.8223 6.25C37.8223 7.1125 38.5207 7.8125 39.3848 7.8125C40.2488 7.8125 40.9473 7.1125 40.9473 6.25C40.9473 3.66562 38.8441 1.5625 36.2598 1.5625H14.3848C11.8004 1.5625 9.69727 3.66562 9.69727 6.25V43.75C9.69727 46.3344 11.8004 48.4375 14.3848 48.4375H36.2598C38.8441 48.4375 40.9473 46.3344 40.9473 43.75V32.8125C40.9473 31.95 40.2488 31.25 39.3848 31.25Z" fill="#183953"/>
<path d="M20.6348 6.25C19.7723 6.25 19.0723 6.95 19.0723 7.8125C19.0723 8.675 19.7723 9.375 20.6348 9.375H30.0098C30.8738 9.375 31.5723 8.675 31.5723 7.8125C31.5723 6.95 30.8738 6.25 30.0098 6.25H20.6348ZM26.8848 43.75C27.7488 43.75 28.4473 43.05 28.4473 42.1875C28.4473 41.325 27.7488 40.625 26.8848 40.625H23.7598C22.8973 40.625 22.1973 41.325 22.1973 42.1875C22.1973 43.05 22.8973 43.75 23.7598 43.75H26.8848Z" fill="#183953"/>
</svg>
