<svg width="436" height="437" viewBox="0 0 436 437" fill="none" xmlns="http://www.w3.org/2000/svg">
<g filter="url(#filter0_d_1418_5227)">
<ellipse cx="218" cy="202.5" rx="186" ry="186.5" fill="#0080DC"/>
</g>
<path d="M165.624 164.814H179.203V212.691C179.203 218.204 178.018 222.841 175.647 226.604C173.277 230.334 170.051 233.156 165.969 235.07C161.887 236.952 157.246 237.892 152.045 237.892C146.778 237.892 142.087 236.952 137.972 235.07C133.857 233.156 130.631 230.334 128.294 226.604C125.957 222.841 124.788 218.204 124.788 212.691V164.814H138.367V212.691C138.367 216.058 138.927 218.814 140.046 220.96C141.165 223.072 142.745 224.64 144.786 225.663C146.827 226.686 149.247 227.198 152.045 227.198C154.876 227.198 157.295 226.686 159.303 225.663C161.344 224.64 162.908 223.072 163.994 220.96C165.081 218.814 165.624 216.058 165.624 212.691V164.814Z" fill="white"/>
<path d="M250.307 199.026V202.74C250.307 208.186 249.583 213.087 248.134 217.444C246.686 221.768 244.629 225.449 241.962 228.485C239.296 231.522 236.119 233.849 232.432 235.466C228.745 237.084 224.647 237.892 220.137 237.892C215.693 237.892 211.611 237.084 207.891 235.466C204.204 233.849 201.011 231.522 198.312 228.485C195.613 225.449 193.522 221.768 192.041 217.444C190.56 213.087 189.819 208.186 189.819 202.74V199.026C189.819 193.547 190.56 188.646 192.041 184.322C193.522 179.998 195.596 176.317 198.263 173.281C200.929 170.211 204.106 167.868 207.793 166.25C211.512 164.633 215.594 163.824 220.038 163.824C224.548 163.824 228.647 164.633 232.333 166.25C236.02 167.868 239.197 170.211 241.863 173.281C244.563 176.317 246.637 179.998 248.085 184.322C249.566 188.646 250.307 193.547 250.307 199.026ZM236.58 202.74V198.927C236.58 194.999 236.218 191.55 235.494 188.58C234.769 185.576 233.7 183.051 232.284 181.004C230.869 178.958 229.124 177.423 227.05 176.4C224.976 175.344 222.639 174.816 220.038 174.816C217.405 174.816 215.068 175.344 213.027 176.4C211.019 177.423 209.307 178.958 207.891 181.004C206.476 183.051 205.389 185.576 204.632 188.58C203.908 191.55 203.546 194.999 203.546 198.927V202.74C203.546 206.635 203.908 210.084 204.632 213.087C205.389 216.091 206.476 218.633 207.891 220.712C209.34 222.759 211.084 224.31 213.125 225.366C215.166 226.422 217.504 226.95 220.137 226.95C222.771 226.95 225.108 226.422 227.149 225.366C229.19 224.31 230.901 222.759 232.284 220.712C233.7 218.633 234.769 216.091 235.494 213.087C236.218 210.084 236.58 206.635 236.58 202.74Z" fill="white"/>
<path d="M275.391 164.814V236.902H261.812V164.814H275.391ZM318.547 164.814L289.711 199.967L273.218 217.642L270.799 204.423L282.255 189.52L301.907 164.814H318.547ZM303.438 236.902L281.07 203.136L290.797 194.323L319.584 236.902H303.438Z" fill="white"/>
<defs>
<filter id="filter0_d_1418_5227" x="0" y="0" width="436" height="437" filterUnits="userSpaceOnUse" color-interpolation-filters="sRGB">
<feFlood flood-opacity="0" result="BackgroundImageFix"/>
<feColorMatrix in="SourceAlpha" type="matrix" values="0 0 0 0 0 0 0 0 0 0 0 0 0 0 0 0 0 0 127 0" result="hardAlpha"/>
<feOffset dy="16"/>
<feGaussianBlur stdDeviation="16"/>
<feColorMatrix type="matrix" values="0 0 0 0 0.843137 0 0 0 0 0.835294 0 0 0 0 0.831373 0 0 0 0.4 0"/>
<feBlend mode="normal" in2="BackgroundImageFix" result="effect1_dropShadow_1418_5227"/>
<feBlend mode="normal" in="SourceGraphic" in2="effect1_dropShadow_1418_5227" result="shape"/>
</filter>
</defs>
</svg>
