<svg width="375" height="255" viewBox="0 0 375 255" fill="none" xmlns="http://www.w3.org/2000/svg">
<path d="M373.037 81.4374C348.124 50.3361 301.951 23.5546 249.511 9.80346C184.667 -7.20036 124.356 -0.921125 84.0642 27.0432C65.1433 40.1659 50.8105 57.8463 41.4731 79.5539C33.1634 98.8886 28.8237 121.551 28.5033 147.066C85.1136 78.6291 186.648 40.0571 278.297 64.0901C278.297 64.0901 185.099 61.6707 108.115 109.716C90.5816 120.591 74.9009 133.652 61.5878 148.47C34.395 176.733 13.7137 209.315 0.756562 244.304L39.1597 254.374C39.1597 254.374 45.4226 220.223 69.4731 185.376C83.7608 191.211 98.5059 196.185 113.61 200.267C148.922 209.527 176.539 209.31 200.556 199.604C222.069 190.909 237.786 175.747 254.414 159.718C279.811 135.213 308.586 107.452 366.711 95.4265C368.35 95.0882 369.881 94.3996 371.168 93.4222C372.454 92.4448 373.455 91.2092 374.081 89.8262C374.706 88.4433 374.938 86.9561 374.753 85.498C374.569 84.0398 373.975 82.6564 373.025 81.4716L373.037 81.4374Z" fill="#007D7E"/>
</svg>
